<?xml version="1.0" encoding="UTF-8"?><svg id="Layer_1" xmlns="http://www.w3.org/2000/svg" viewBox="0 0 1728 1296"><line x1="132.31" y1="558.5" x2="132.31" y2="705.28" fill="#fff" stroke="#fff" stroke-linejoin="round" stroke-width="40"/><ellipse cx="216.53" cy="509.72" rx="101.76" ry="86.41" fill="none" stroke="#fff" stroke-linejoin="round" stroke-width="40"/><line x1="216.53" y1="327.39" x2="216.53" y2="415.72" fill="#fff" stroke="#fff" stroke-linecap="round" stroke-linejoin="round" stroke-width="10"/><line x1="216.53" y1="848.91" x2="216.53" y2="937.24" fill="#fff" stroke="#fff" stroke-linecap="round" stroke-linejoin="round" stroke-width="10"/><ellipse cx="216.53" cy="753.8" rx="101.76" ry="86.41" fill="none" stroke="#fff" stroke-linejoin="round" stroke-width="40"/><line x1="216.53" y1="327.39" x2="216.53" y2="415.72" fill="#fff" stroke="#fff" stroke-linecap="round" stroke-linejoin="round" stroke-width="40"/><line x1="216.53" y1="848.91" x2="216.53" y2="937.24" fill="#fff" stroke="#fff" stroke-linecap="round" stroke-linejoin="round" stroke-width="40"/><rect x="516.37" y="249.71" width="3.14" height="242.79" fill="none"/><rect x="347.45" y="415.72" width="1073.39" height="285.02" fill="none"/><path d="M518.76,600.07h-31.42l-90.53-157.76v157.76h-23.72v-176.36h39.36l82.58,144.02v-144.02h23.72v176.36Z" fill="#fff" stroke="#fff" stroke-miterlimit="10"/><path d="M687.5,536.23h-105.53c0,8.13,1.32,15.22,3.97,21.26,2.65,6.04,6.28,11,10.9,14.87,4.44,3.79,9.72,6.63,15.84,8.53,6.11,1.9,12.84,2.84,20.2,2.84,9.74,0,19.55-1.79,29.43-5.39,9.87-3.59,16.9-7.12,21.09-10.6h1.28v24.28c-8.12,3.16-16.41,5.8-24.88,7.94-8.46,2.13-17.35,3.2-26.67,3.2-23.77,0-42.31-5.94-55.65-17.83-13.33-11.88-20-28.76-20-50.63s6.39-38.81,19.17-51.52c12.78-12.71,29.6-19.07,50.46-19.07,19.32,0,34.21,5.21,44.69,15.63,10.47,10.42,15.71,25.23,15.71,44.42v12.08ZM664.03,519.18c-.09-11.69-3.27-20.73-9.55-27.12-6.28-6.4-15.84-9.59-28.66-9.59s-23.19,3.51-30.84,10.54c-7.65,7.03-11.99,15.75-13.01,26.18h82.06Z" fill="#fff" stroke="#fff" stroke-miterlimit="10"/><path d="M813.42,492.05h-1.28c-3.59-.79-7.07-1.36-10.45-1.72-3.38-.35-7.37-.53-11.99-.53-7.44,0-14.62,1.52-21.54,4.56-6.92,3.04-13.59,6.97-20,11.78v93.92h-24.11v-132.3h24.11v19.54c9.57-7.11,18.02-12.14,25.32-15.1,7.31-2.96,14.77-4.44,22.38-4.44,4.19,0,7.22.1,9.1.3,1.88.2,4.7.57,8.46,1.12v22.86Z" fill="#fff" stroke="#fff" stroke-miterlimit="10"/><path d="M952.28,600.07h-24.11v-13.86c-6.92,5.53-14.15,9.83-21.67,12.91-7.52,3.08-15.69,4.62-24.49,4.62-17.1,0-30.67-6.08-40.71-18.24-10.05-12.16-15.07-29.02-15.07-50.57,0-11.21,1.73-21.2,5.19-29.97,3.46-8.76,8.14-16.23,14.04-22.39,5.81-6,12.59-10.58,20.32-13.74,7.74-3.16,15.75-4.74,24.04-4.74,7.52,0,14.19.73,20,2.19,5.81,1.46,11.92,3.73,18.34,6.81v-57.33h24.11v184.29ZM928.18,567.5v-75.92c-6.5-2.68-12.31-4.54-17.44-5.57-5.13-1.03-10.73-1.54-16.8-1.54-13.51,0-24.02,4.34-31.54,13.03-7.52,8.69-11.28,21-11.28,36.95s2.9,27.66,8.72,35.83c5.81,8.17,15.13,12.26,27.95,12.26,6.84,0,13.76-1.4,20.77-4.21,7.01-2.8,13.55-6.41,19.62-10.84Z" fill="#fff" stroke="#fff" stroke-miterlimit="10"/><path d="M1123.59,467.77l-83.6,181.1h-25.77l26.67-55.19-57.06-125.9h26.16l43.98,98.07,44.37-98.07h25.26Z" fill="#fff" stroke="#fff" stroke-miterlimit="10"/><rect x="347.45" y="667.38" width="1326.15" height="214.77" fill="none"/><path d="M489.6,828.69h-120.84v-154.31h120.84v29.85h-77.98v26.63h72.37v29.85h-72.37v38.14h77.98v29.85Z" fill="#fff" stroke="#fff" stroke-miterlimit="10"/><path d="M648.31,828.69h-47.13l-26.92-34.85-27.65,34.85h-46.18l49.7-58.27-48.92-58.12h47.12l26.47,34.15,26.62-34.15h46.32l-49.02,57.33,49.59,59.06Z" fill="#fff" stroke="#fff" stroke-miterlimit="10"/><path d="M787.5,777.39h-92.45c.6,9.12,4.36,16.1,11.28,20.93,6.92,4.84,17.11,7.25,30.57,7.25,8.53,0,16.79-1.42,24.8-4.25,8-2.83,14.32-5.87,18.96-9.12h4.49v29.95c-9.13,3.39-17.73,5.84-25.81,7.36-8.08,1.52-17.02,2.28-26.81,2.28-25.28,0-44.65-5.25-58.12-15.75-13.46-10.5-20.2-25.46-20.2-44.88s6.38-34.42,19.13-45.65c12.75-11.23,30.24-16.84,52.45-16.84,20.49,0,35.9,4.79,46.22,14.35,10.32,9.57,15.48,23.34,15.48,41.3v13.06ZM747.33,755.52c-.22-7.81-2.32-13.68-6.28-17.62-3.97-3.94-10.14-5.91-18.51-5.91-7.78,0-14.18,1.87-19.19,5.6-5.01,3.73-7.82,9.71-8.42,17.93h52.4Z" fill="#fff" stroke="#fff" stroke-miterlimit="10"/><path d="M874.74,831.8c-11,0-21.04-1.21-30.13-3.63-9.09-2.42-17-6.15-23.73-11.19-6.66-5.04-11.82-11.4-15.48-19.07-3.67-7.67-5.5-16.65-5.5-26.95,0-10.85,1.96-20.21,5.89-28.08,3.93-7.88,9.41-14.41,16.44-19.59,6.81-4.9,14.66-8.5,23.56-10.78,8.9-2.28,18.14-3.42,27.71-3.42,8.6,0,16.53.87,23.79,2.59,7.25,1.73,14.03,3.97,20.31,6.74v31.82h-5.71c-1.57-1.24-3.46-2.69-5.66-4.35s-4.91-3.28-8.12-4.87c-3.06-1.52-6.42-2.78-10.08-3.78-3.66-1-7.92-1.5-12.77-1.5-10.76,0-19.03,3.16-24.82,9.48-5.79,6.32-8.68,14.91-8.68,25.75s2.97,19.69,8.91,25.5c5.94,5.8,14.36,8.71,25.26,8.71,5.08,0,9.65-.53,13.72-1.61,4.07-1.07,7.45-2.33,10.14-3.78,2.54-1.38,4.78-2.83,6.72-4.35,1.94-1.52,3.73-3,5.38-4.46h5.71v31.82c-6.36,2.76-13,4.96-19.91,6.58-6.92,1.62-14.57,2.44-22.94,2.44Z" fill="#fff" stroke="#fff" stroke-miterlimit="10"/><path d="M1062.95,828.69h-40.5v-12.85c-7.47,5.25-14.31,9.24-20.5,11.97-6.2,2.73-13.6,4.09-22.19,4.09-13.89,0-24.6-3.7-32.1-11.09-7.51-7.39-11.26-18.31-11.26-32.75v-75.76h40.5v57.73c0,5.87.21,10.76.62,14.67.41,3.9,1.36,7.13,2.86,9.69,1.42,2.56,3.57,4.42,6.45,5.6,2.88,1.18,6.9,1.76,12.06,1.76,3.44,0,7.25-.59,11.44-1.76,4.19-1.17,8.23-2.9,12.12-5.18v-82.5h40.5v116.38Z" fill="#fff" stroke="#fff" stroke-miterlimit="10"/><path d="M1174.76,827.67c-4.34,1.03-8.94,1.84-13.8,2.43-4.86.58-10.81.88-17.84.88-15.71,0-27.4-2.94-35.06-8.81-7.67-5.87-11.5-15.92-11.5-30.16v-54.41h-16.61v-25.29h16.61v-33.27h40.5v33.27h37.7v25.29h-37.7v41.31c0,4.08.04,7.65.11,10.69.07,3.04.67,5.78,1.79,8.2,1.04,2.42,2.89,4.34,5.54,5.76,2.65,1.42,6.51,2.13,11.58,2.13,2.09,0,4.83-.42,8.22-1.24,3.39-.83,5.76-1.59,7.11-2.28h3.36v25.51Z" fill="#fff" stroke="#fff" stroke-miterlimit="10"/><path d="M1233.62,695.73h-42.75v-28.29h42.75v28.29ZM1232.5,828.69h-40.5v-116.38h40.5v116.38Z" fill="#fff" stroke="#fff" stroke-miterlimit="10"/><path d="M1390.53,712.31l-48.58,116.38h-45.78l-48.24-116.38h42.65l29.24,80.11,28.87-80.11h41.85Z" fill="#fff" stroke="#fff" stroke-miterlimit="10"/><path d="M1530.17,777.39h-92.45c.6,9.12,4.36,16.1,11.28,20.93,6.92,4.84,17.11,7.25,30.57,7.25,8.53,0,16.79-1.42,24.79-4.25,8-2.83,14.32-5.87,18.96-9.12h4.49v29.95c-9.13,3.39-17.73,5.84-25.8,7.36s-17.02,2.28-26.82,2.28c-25.28,0-44.65-5.25-58.12-15.75-13.46-10.5-20.2-25.46-20.2-44.88s6.38-34.42,19.13-45.65c12.75-11.23,30.24-16.84,52.45-16.84,20.49,0,35.9,4.79,46.22,14.35,10.32,9.57,15.48,23.34,15.48,41.3v13.06ZM1490,755.52c-.22-7.81-2.32-13.68-6.28-17.62-3.97-3.94-10.14-5.91-18.51-5.91-7.78,0-14.18,1.87-19.19,5.6-5.01,3.73-7.82,9.71-8.42,17.93h52.4Z" fill="#fff" stroke="#fff" stroke-miterlimit="10"/><polyline points="858.86 477.62 955.04 325.12 955.04 784.75 858.86 937.24" fill="none"/></svg>